<?xml version="1.0" standalone="no"?>
<!DOCTYPE svg PUBLIC "-//W3C//DTD SVG 20010904//EN"
 "http://www.w3.org/TR/2001/REC-SVG-20010904/DTD/svg10.dtd">
<svg version="1.0" xmlns="http://www.w3.org/2000/svg"
 width="125.000000pt" height="125.000000pt" viewBox="0 0 125.000000 125.000000"
 preserveAspectRatio="xMidYMid meet">

<g transform="translate(-40,160) scale(0.100000,-0.100000)"
fill="#000000" stroke="none">
<path d="M1091 1343 c-12 -10 -22 -31 -23 -46 -3 -35 1 -32 -190 -155 -148
-96 -158 -100 -186 -90 -91 35 -124 -114 -33 -151 32 -14 60 -5 91 29 14 16
118 45 127 37 2 -3 -45 -67 -105 -143 -71 -92 -115 -140 -130 -142 -34 -5 -65
-51 -58 -86 19 -92 136 -104 148 -16 2 20 64 65 352 252 309 201 352 226 380
221 46 -7 78 22 78 71 0 77 -83 115 -134 62 -18 -18 -57 -32 -177 -60 -85 -20
-156 -35 -158 -33 -9 10 71 98 93 103 61 15 63 119 3 149 -37 19 -52 19 -78
-2z m-93 -229 c-18 -25 -36 -48 -41 -51 -14 -8 -119 -31 -112 -24 8 7 178 120
183 121 2 0 -12 -21 -30 -46z m327 -43 c-20 -18 -538 -352 -541 -348 -3 3 179
242 206 270 7 8 298 84 330 86 8 1 10 -2 5 -8z"/>
</g>
</svg>
